<?xml version="1.0" encoding="utf-8"?>
<!-- Generator: Adobe Illustrator 22.0.0, SVG Export Plug-In . SVG Version: 6.00 Build 0)  -->
<svg version="1.1" id="Layer_1" xmlns="http://www.w3.org/2000/svg" xmlns:xlink="http://www.w3.org/1999/xlink" x="0px" y="0px"
	 viewBox="0 0 108 108" style="enable-background:new 0 0 108 108;" xml:space="preserve">
<style type="text/css">
	.st0{fill:#FFFFFF;}
	.st1{fill:#0693CF;}
	.st2{fill:#005287;}
</style>
<path class="st0" d="M98.8,54c0,24.8-20.1,44.9-45,44.9c-24.8,0-45-20.1-45-44.9c0-24.8,20.1-44.9,45-44.9
	C78.6,9.1,98.8,29.2,98.8,54z"/>
<g>
	<path class="st1" d="M94.8,49.4c0.2,1.5,0.2,3,0.2,4.5c0,22.7-18.5,41.2-41.2,41.2c-22.8,0-41.2-18.4-41.2-41.2
		c0-22.8,18.5-41.2,41.2-41.2c19.2,0,35.4,13.2,40,31c1.3,0,2.5-0.1,3.8-0.3C92.8,23.6,75,8.9,53.8,8.9c-24.9,0-45,20.1-45,44.9
		c0,24.8,20.1,44.9,45,44.9c24.9,0,45-20.1,45-44.9c0-1.7-0.1-3.3-0.3-5C97.3,49.2,96,49.3,94.8,49.4z"/>
</g>
<path class="st2" d="M84.7,50.3c0,0.5,0.4,2.9-1.1,5.5c-0.8,1.3-2.6,0.9-3,0c-0.3-0.7,0-1.1,0.3-1.4c0.4-0.5,0.2-0.5-0.2-0.7
	c-0.5-0.3-0.2-0.4,0.2-0.4c0.4,0.1,0.3-0.3,0-0.6c-0.1-0.2-1.4-0.7-2.2,0.6c-0.3,0.5-1.5,2.7-0.4,4.7c2.2,3.8,6.7,2.4,8.6,0.1
	c1.6-2,3.1-4.9,3.2-8.8C88,49,86,48.4,84.1,47.6C84.5,48.9,84.6,49.9,84.7,50.3z M97.2,45.7c-2.2,0.2-4.6,0-6.9-0.4
	c-3.2-0.7-6.1-1.9-8.6-3.6c2,0.8,4.2,1.4,6.5,1.6c0.4,0,0.8,0.1,1.2,0.1c-1.8-5.8-4.2-7.3-5-9.3c-0.3-0.8-0.8-1.7-1.4-2.5
	c-1.5-2.1-3.5-4.3-5.8-6.3c-1.2-1-4.6-1.4-8-0.7C64.4,20,58.6,17.6,55.1,20c0,0-0.1,0.1-0.1,0.1c-1,0.6-1.6,1.4-2,2.3
	c-0.3,0.5-0.5,1.1-0.7,1.8c-2,0.2-7.4-0.9-7.4-0.9s-9.6-2.6-16.1,8.5c0,0-3.2,4.8-3.6,9.8c-0.1,1-0.3,2.2-0.7,3.6
	c-1.6,5.1-4.6,6.9-6.9,7.4v0c-0.1,0-0.2,0.1-0.2,0.2c0,0.1,0.1,0.2,0.2,0.2c1,0,2.3-0.2,3.5-0.8c1-0.4,2-1,2.8-2
	c0.5-0.6,1-1.2,1.5-2c0.2,3,0.1,7-1.4,9.5c0,0-4,7.4-3.4,13.8C27,83.3,39.4,91.3,53.8,91.3c14.3,0,26.8-8,33.1-19.8H71.6
	c-0.1-1.5-0.6-6.8-3.9-14.1c0,0-1.6-3.6-1.7-7.6c-4.7-1.8-8.4-5.4-10.2-10.1l0,0v0c0,0,0,0,0-0.1c0-0.1,0.1-0.2,0.2-0.2
	c0.1,0,0.2,0,0.2,0.1h0c1.9,2.9,5.3,6.9,10.9,8.7c0,0,7.2,2,5.2-4.5c0,0,0.8,1.2,4.4,0.6c0,0,0.2,0.3,0.6,0.5
	c0.7,0.4,1.1,0.4,1.1,0.4c0.4,0.7,1.4,1.1,1.8,0c0.1-0.2,0.1-0.3,0.1-0.4c1.7,0.7,3.4,1.3,5.3,1.7c3.9,0.8,7.7,0.7,11.3-0.1
	c0,0,0,0,0,0c0,0,0,0,0.1,0c0,0,0.1,0,0.1,0l0,0c0.4-0.1,0.6-0.3,0.6-0.4C97.8,45.8,97.5,45.7,97.2,45.7z M27.8,71.5
	c0-7.3,2.1-10.1,2.6-11.3c0.3-0.6,0.7-1.1,1-1.4c0.3,0.6,0.6,1.6,0.8,3c0.2,2.9-0.6,5.9,0.6,9.6H27.8z M52.1,55.1
	c-0.1,1.9-0.1,3.7-0.4,5.5l0-0.1c-0.6,3.6-2.2,7.7-1.1,10.9H40.6c-0.6-0.8-1.9-2.8-2.5-6.1c-0.6-3.8-0.5-5.2,0.4-7.7
	c0.9-2.5,3.2-3.5,3.8-3.6c0.6-0.1,3.4,0.2,5.3-0.6c1.9-0.8,3-1.4,4-1.1C52.2,52.6,52.2,54.5,52.1,55.1z M59.9,58c0,0,4,5.1,4.1,13.5
	h-6.6C57,70.4,56.1,65.9,59.9,58z M79.4,35.7c-0.9,0.1-1.7-0.5-1.8-1.4c-0.1-0.9,0.5-1.7,1.4-1.8c0.9-0.1,1.7,0.5,1.8,1.4
	C80.9,34.8,80.3,35.6,79.4,35.7z"/>
</svg>
