<?xml version="1.0" encoding="UTF-8" standalone="no"?>
<svg width="15px" height="11px" viewBox="0 0 15 11" version="1.1" xmlns="http://www.w3.org/2000/svg" xmlns:xlink="http://www.w3.org/1999/xlink">
    <!-- Generator: Sketch 47.1 (45422) - http://www.bohemiancoding.com/sketch -->
    <title>youtube</title>
    <desc>Created with Sketch.</desc>
    <defs></defs>
    <g id="Page-1" stroke="none" stroke-width="1" fill="none" fill-rule="evenodd">
        <g id="safe-car" transform="translate(-1227.000000, -4804.000000)" fill-rule="nonzero" fill="#183963">
            <g id="youtube" transform="translate(1227.000000, 4804.000000)">
                <path d="M14.4153387,0.944271793 C13.8738871,0.273580668 12.8742097,0 10.9650484,0 L4.03480645,0 C2.08195161,0 1.06533871,0.291227781 0.525919355,1.00528038 C0,1.70148419 0,2.72728564 0,4.14702108 L0,6.85302934 C0,9.60350834 0.624,11 4.03480645,11 L10.9650968,11 C12.6207097,11 13.538129,10.7585875 14.1316452,10.1667033 C14.7403065,9.5597435 15,8.56873207 15,6.85302934 L15,4.14702108 C15,2.64978961 14.9593065,1.61793772 14.4153387,0.944271793 Z M9.63004839,5.87361459 L6.48304839,7.58745176 C6.41269355,7.6257712 6.33575806,7.64477966 6.25891935,7.64477966 C6.17191935,7.64477966 6.0851129,7.62037623 6.00822581,7.57187188 C5.86345161,7.48045983 5.77504839,7.31694673 5.77504839,7.14057644 L5.77504839,3.72389373 C5.77504839,3.54782597 5.86320968,3.38446412 6.00769355,3.29300166 C6.15222581,3.20153919 6.33198387,3.19528707 6.48193548,3.27646379 L9.62893548,4.97925891 C9.78904839,5.06588103 9.88959677,5.23811685 9.88983871,5.42603339 C9.89003226,5.61410119 9.78991935,5.78658911 9.63004839,5.87361459 Z" id="XMLID_823_"></path>
            </g>
        </g>
    </g>
</svg>