<?xml version="1.0" encoding="UTF-8" standalone="no"?>
<svg  height="12px" version="1.1" xmlns="http://www.w3.org/2000/svg" xmlns:xlink="http://www.w3.org/1999/xlink">
    <!-- Generator: Sketch 46.2 (44496) - http://www.bohemiancoding.com/sketch -->
    <title>Group 28</title>
    <desc>Created with Sketch.</desc>
    <defs></defs>
    <g id="Page-1" stroke="none" stroke-width="1" fill="none" fill-rule="evenodd">
        <g id="safe-car" transform="translate(-1342.000000, -29.000000)" fill="#183963">
            <g id="Group-10">
                <g id="Group-28" transform="translate(1283.000000, 26.000000)">
   
                    <g id="Page-1" transform="translate(59.000000, 3.000000)">
                        <g id="Group-3" transform="translate(0.000000, 5.000000)">
                            <path d="M8.41992188,6.57303675 L7.33695652e-05,6.57303675 L7.33695652e-05,4.82544135 C7.33695652e-05,2.53667269 1.88486893,0.681169637 4.20999762,0.681169637 L4.20999762,0.681169637 C6.53512631,0.681169637 8.41992188,2.53667269 8.41992188,4.82544135 L8.41992188,6.57303675 Z" id="Fill-1"></path>
                        </g>
                        <path d="M4.00009367,5 L4.00009367,5 C2.34998595,5 1,3.85600889 1,2.45785045 L1,2.5423083 C1,1.14399111 2.34998595,0 4.00009367,0 L4.00009367,0 C5.65001405,0 7,1.14399111 7,2.5423083 L7,2.45785045 C7,3.85600889 5.65001405,5 4.00009367,5" id="Fill-4"></path>
                    </g>
                </g>
            </g>
        </g>
    </g>
</svg>