<svg id="Layer_1" data-name="Layer 1" xmlns="http://www.w3.org/2000/svg" width="152.68" height="40.85" viewBox="0 0 152.68 40.85"><defs><style>.cls-1{fill:#fff;}.cls-2{fill:#03a8f0;}.cls-3{fill:#183963;}.cls-4{fill:#193a63;}</style></defs><title>logo2</title><path class="cls-1" d="M37.71,19.15A18.32,18.32,0,1,1,19.39.83,18.32,18.32,0,0,1,37.71,19.15Z" transform="translate(-0.98 -0.74)"/><path class="cls-2" d="M36.16,17.31c.06.61.1,1.22.1,1.84A16.88,16.88,0,1,1,35.73,15c.53,0,1-.05,1.55-.11a18.4,18.4,0,1,0,.51,4.3,19.61,19.61,0,0,0-.11-2A9.58,9.58,0,0,1,36.16,17.31Z" transform="translate(-0.98 -0.74)"/><path class="cls-2" d="M87.22,29.93,85,41.4H83.63l2.18-11.47Z" transform="translate(-0.98 -0.74)"/><path class="cls-2" d="M87.7,41.4l1.08-5.84c.19-.92.31-1.72.4-2.4h1.27l-.22,1.62h0A3.63,3.63,0,0,1,93.33,33a2,2,0,0,1,2.08,2.28,7.28,7.28,0,0,1-.16,1.33l-.91,4.81h-1.4l.9-4.77a6.69,6.69,0,0,0,.1-1.05c0-.82-.32-1.43-1.29-1.43s-2.44,1.21-2.81,3.25l-.75,4Z" transform="translate(-0.98 -0.74)"/><path class="cls-2" d="M96.49,40a3.6,3.6,0,0,0,1.77.51,1.42,1.42,0,0,0,1.57-1.34c0-.65-.3-1.06-1.16-1.54a2.41,2.41,0,0,1-1.48-2.09,2.71,2.71,0,0,1,3-2.55,3.48,3.48,0,0,1,1.71.4l-.4,1.08a2.84,2.84,0,0,0-1.41-.38,1.34,1.34,0,0,0-1.48,1.25c0,.59.39,1,1.14,1.37a2.58,2.58,0,0,1,1.53,2.18c0,1.74-1.39,2.71-3.15,2.71a3.79,3.79,0,0,1-2-.56Z" transform="translate(-0.98 -0.74)"/><path class="cls-2" d="M110.73,33.16,109.6,39c-.17.92-.29,1.72-.35,2.4H108l.22-1.55h0a3.68,3.68,0,0,1-2.91,1.74c-1.06,0-2.18-.51-2.18-2.38a7.88,7.88,0,0,1,.15-1.4l.9-4.65h1.4l-.87,4.6a6.33,6.33,0,0,0-.14,1.21c0,.85.34,1.43,1.31,1.43s2.35-1.21,2.69-3l.8-4.23Z" transform="translate(-0.98 -0.74)"/><path class="cls-2" d="M111.27,41.4l1-5.31c.21-1.07.32-2.16.41-2.93h1.24c0,.58-.12,1.14-.22,1.79h0a3,3,0,0,1,2.52-2,2.63,2.63,0,0,1,.41,0l-.27,1.4a2.06,2.06,0,0,0-.4,0c-1.2,0-2.29,1.48-2.65,3.39l-.68,3.64Z" transform="translate(-0.98 -0.74)"/><path class="cls-2" d="M121.73,41.4a19.19,19.19,0,0,1,.19-2.12h0c-.9,1.71-2,2.31-3.2,2.31a2.43,2.43,0,0,1-2.36-2.72A5.73,5.73,0,0,1,122,33a8.31,8.31,0,0,1,2.21.3l-.83,4.31A18.36,18.36,0,0,0,123,41.4Zm.9-7.18a3,3,0,0,0-1-.12c-2.13,0-3.88,2.21-3.88,4.51,0,.92.32,1.82,1.4,1.82s2.58-1.53,3-3.73Z" transform="translate(-0.98 -0.74)"/><path class="cls-2" d="M124.92,41.4,126,35.56c.19-.92.31-1.72.39-2.4h1.28l-.22,1.62h0a3.65,3.65,0,0,1,3.07-1.8,2,2,0,0,1,2.08,2.28,7.28,7.28,0,0,1-.16,1.33l-.92,4.81h-1.39l.9-4.77a6.69,6.69,0,0,0,.1-1.05c0-.82-.32-1.43-1.29-1.43s-2.44,1.21-2.81,3.25l-.75,4Z" transform="translate(-0.98 -0.74)"/><path class="cls-2" d="M139.46,41.08a5.43,5.43,0,0,1-2.38.51,3,3,0,0,1-3.17-3.18A5.24,5.24,0,0,1,139,33a4,4,0,0,1,1.72.37l-.41,1.11a3.12,3.12,0,0,0-1.4-.31c-2.14,0-3.49,2.11-3.49,4.07a1.94,1.94,0,0,0,2,2.21,4.15,4.15,0,0,0,1.9-.46Z" transform="translate(-0.98 -0.74)"/><path class="cls-2" d="M146.83,40.94a5.93,5.93,0,0,1-2.73.65c-2.18,0-3.13-1.5-3.13-3.32,0-2.49,1.84-5.29,4.49-5.29a2.14,2.14,0,0,1,2.42,2.12c0,2.17-2.43,2.73-5.48,2.68a3.32,3.32,0,0,0,.17,1.56,1.85,1.85,0,0,0,1.84,1.11,4.62,4.62,0,0,0,2.21-.56Zm-.31-5.82c0-.66-.51-1-1.26-1-1.34,0-2.35,1.31-2.69,2.61,2.21,0,4-.28,4-1.55Z" transform="translate(-0.98 -0.74)"/><path class="cls-3" d="M32,17.67a3.49,3.49,0,0,1-.46,2.27.74.74,0,0,1-1.23,0,.47.47,0,0,1,.11-.57c.15-.19.07-.22-.07-.3s-.06-.18.1-.15.12-.13,0-.25a.59.59,0,0,0-.88.23,1.93,1.93,0,0,0-.16,1.91c.89,1.54,2.75,1,3.52,0a5.72,5.72,0,0,0,1.3-3.59,9.07,9.07,0,0,1-2.48-.71A4.43,4.43,0,0,1,32,17.67Zm5.15-1.88a9.9,9.9,0,0,1-2.81-.18,10.08,10.08,0,0,1-3.53-1.47,9.35,9.35,0,0,0,2.66.66l.49,0c-.72-2.35-1.72-3-2-3.82a4.47,4.47,0,0,0-.58-1A14.54,14.54,0,0,0,29,7.39a4.75,4.75,0,0,0-3.29-.3c-2-1.81-4.34-2.78-5.75-1.8l-.05,0a2,2,0,0,0-.82.94A3.33,3.33,0,0,0,18.8,7a17,17,0,0,1-3-.38S11.86,5.54,9.2,10.1a9.55,9.55,0,0,0-1.48,4,12.8,12.8,0,0,1-.28,1.48,4,4,0,0,1-2.83,3h0a.1.1,0,1,0,0,.2A3.91,3.91,0,0,0,6,18.5a2.8,2.8,0,0,0,1.16-.82,3.85,3.85,0,0,0,.6-.83,7,7,0,0,1-.56,3.87s-1.66,3.05-1.38,5.65a15.34,15.34,0,0,0,27.06,0H26.69a16.21,16.21,0,0,0-1.61-5.77,8.86,8.86,0,0,1-.71-3.12,7.18,7.18,0,0,1-4.16-4.13h0v0a.1.1,0,0,1,.09-.1.09.09,0,0,1,.08,0h0a8.59,8.59,0,0,0,4.46,3.57s2.94.8,2.14-1.85c0,0,.31.5,1.81.26a.7.7,0,0,0,.25.22,1,1,0,0,0,.45.16c.17.29.58.46.75,0a.64.64,0,0,0,.05-.17,10.9,10.9,0,0,0,2.16.69,10.68,10.68,0,0,0,4.61-.05h.09c.16,0,.27-.11.26-.18S37.3,15.79,37.17,15.79ZM8.77,26.37a8.44,8.44,0,0,1,1.08-4.62,1.46,1.46,0,0,1,.42-.57,3.44,3.44,0,0,1,.31,1.24c.1,1.2-.24,2.44.25,3.95Zm10-6.72a16.81,16.81,0,0,1-.19,2.27l0,0c-.25,1.46-.9,3.13-.46,4.47H14a6.24,6.24,0,0,1-1-2.51,5.48,5.48,0,0,1,.16-3.16,2.32,2.32,0,0,1,1.53-1.47A6.5,6.5,0,0,0,16.84,19c.78-.35,1.23-.6,1.62-.47S18.74,19.41,18.73,19.65Zm3.16,1.19a9.89,9.89,0,0,1,1.68,5.53H20.88C20.73,25.89,20.33,24.06,21.89,20.84Zm8-9.13a.66.66,0,0,1-.15-1.31.66.66,0,0,1,.15,1.31Z" transform="translate(-0.98 -0.74)"/><path class="cls-3" d="M146.12,11.84,147,7.93h-4l-.83,3.92-1.65.12-.7,3.27,1.57.11L139.87,22a6.41,6.41,0,0,0-.17,1.53,3,3,0,0,0,1.23,2.69,5,5,0,0,0,2.88.71,10,10,0,0,0,4.13-.85l.19-.09-.84-3.2-.27.11a6.6,6.6,0,0,1-2.36.55c-.57,0-.91-.14-.91-.63a1,1,0,0,1,0-.26l1.55-7.19h4.14l0-.2.75-3.34ZM60.4,23.28a2.21,2.21,0,0,1-.82.18c-.4,0-.55-.14-.57-.52a1.28,1.28,0,0,1,0-.3l-.25-.07.25.06L62.72,5.16h-4L55,22.46a6.24,6.24,0,0,0-.18,1.48,2.87,2.87,0,0,0,.84,2.24,3.25,3.25,0,0,0,2.27.73A10,10,0,0,0,61,26.35l.21-.06-.55-3.13Zm12.93-.57a9.58,9.58,0,0,1-3.53.78c-1.92,0-3.13-.89-3.22-2.75H76l.07-.15a7.57,7.57,0,0,0,.65-3A6.05,6.05,0,0,0,75,13.22a6.12,6.12,0,0,0-4.38-1.69c-4.83,0-8.1,4-8.1,8.64a6.54,6.54,0,0,0,2,5,7.36,7.36,0,0,0,5.09,1.76A11.06,11.06,0,0,0,74.4,25.8l.2-.1-1-3.09Zm-2.9-7.82a2.32,2.32,0,0,1,2.23,2.37c0,.09,0,.19,0,.29H67.1A3.75,3.75,0,0,1,70.43,14.89Zm19.64-1.56a7.86,7.86,0,0,0-5.26-1.8,15.62,15.62,0,0,0-5.14,1l-.17.06v.18a9.44,9.44,0,0,1-.22,2L75.36,33.05h4l1.41-6.6a8.83,8.83,0,0,0,2.87.49,8.51,8.51,0,0,0,8.56-8.54A6.48,6.48,0,0,0,90.07,13.33ZM83.36,23.46a4.58,4.58,0,0,1-1.83-.38L83,15.92a5.23,5.23,0,0,0,.08-.69A5.49,5.49,0,0,1,84.61,15c2.17,0,3.32,1.3,3.34,3.45A4.83,4.83,0,0,1,83.36,23.46Zm23.16-10.92a5.21,5.21,0,0,0-3.36-1,10.43,10.43,0,0,0-3.54.66l1.54-7h-4L92.48,26.63h4l2.33-10.77A6.94,6.94,0,0,1,102,15c1.19,0,1.65.46,1.68,1.65a4.78,4.78,0,0,1-.08.84l-2,9.13h4l2-9.43h0a8,8,0,0,0,.17-1.41A4,4,0,0,0,106.52,12.54Zm11.31,14.14a18.46,18.46,0,0,0,2.89-.64l.17-.05v-.18a12.72,12.72,0,0,1,.16-1.95L122.55,17a6.18,6.18,0,0,0,.15-1.31,3.64,3.64,0,0,0-1.77-3.27,7,7,0,0,0-3.66-.89,17.38,17.38,0,0,0-5.79,1.18l-.24.09,1.11,3.14.25-.1a12.22,12.22,0,0,1,4.22-.86,3.64,3.64,0,0,1,1.25.18c.39.16.6.35.61.73s-.47.83-1.42,1.11c-1.41.43-3.58.64-5.43,1.34s-3.41,2-3.4,4.4a3.53,3.53,0,0,0,2,3.33,9.56,9.56,0,0,0,4.35.84,21.41,21.41,0,0,0,3-.23m-.49-4.1a5,5,0,0,0-.09.74,10.17,10.17,0,0,1-2.34.25,3.88,3.88,0,0,1-1.52-.24,1,1,0,0,1-.72-1c0-.85.92-1.3,2.23-1.62a21.88,21.88,0,0,0,3-.79Zm19.14-10.1a6.42,6.42,0,0,0-3.73-1,23.65,23.65,0,0,0-7.13,1.35l-.17.06v.17a18.81,18.81,0,0,1-.16,2l-2.47,11.57h4l2.27-10.45a6.33,6.33,0,0,0,.06-.73,9.19,9.19,0,0,1,2.74-.44c1.26,0,2,.33,2.06,1.63a4.63,4.63,0,0,1-.14,1.11L132,26.63h4l1.79-8.54a10.77,10.77,0,0,0,.26-2.11A4,4,0,0,0,136.48,12.48ZM52.27,18.05,53,14.47h-6.5l.94-4.23h7.78l0-.19.79-3.36H44.14L39.85,26.63h12l.83-3.58h-8l1.11-5Z" transform="translate(-0.98 -0.74)"/><path class="cls-4" d="M151.77,22.83a2,2,0,0,1,.94.24,1.81,1.81,0,0,1,.7.7,2,2,0,0,1,.26.95,2,2,0,0,1-.25,1,1.81,1.81,0,0,1-.7.7,1.91,1.91,0,0,1-1.89,0,1.81,1.81,0,0,1-.7-.7,1.9,1.9,0,0,1-.25-1,2,2,0,0,1,.25-.95,1.84,1.84,0,0,1,.71-.7A2,2,0,0,1,151.77,22.83Zm0,.31a1.57,1.57,0,0,0-.77.21,1.46,1.46,0,0,0-.6.58,1.64,1.64,0,0,0-.21.79,1.58,1.58,0,0,0,.21.79,1.5,1.5,0,0,0,.59.58,1.57,1.57,0,0,0,1.57,0,1.41,1.41,0,0,0,.58-.58,1.58,1.58,0,0,0,.21-.79,1.64,1.64,0,0,0-.21-.79,1.43,1.43,0,0,0-.59-.58A1.58,1.58,0,0,0,151.77,23.14Zm-.83,2.63v-2h.7a1.59,1.59,0,0,1,.52.06.51.51,0,0,1,.26.2.53.53,0,0,1,.09.3.52.52,0,0,1-.16.38.59.59,0,0,1-.42.19.56.56,0,0,1,.17.11,1.92,1.92,0,0,1,.31.4l.24.4h-.4l-.18-.32a1.51,1.51,0,0,0-.34-.47.41.41,0,0,0-.27-.07h-.19v.86Zm.33-1.15h.4a.63.63,0,0,0,.39-.08.28.28,0,0,0,.11-.23.25.25,0,0,0-.06-.16A.35.35,0,0,0,152,24a1.21,1.21,0,0,0-.33,0h-.38Z" transform="translate(-0.98 -0.74)"/></svg>