<?xml version="1.0" encoding="UTF-8" standalone="no"?>
<svg width="12px" height="12px" viewBox="0 0 12 12" version="1.1" xmlns="http://www.w3.org/2000/svg" xmlns:xlink="http://www.w3.org/1999/xlink">
    <!-- Generator: Sketch 47.1 (45422) - http://www.bohemiancoding.com/sketch -->
    <title>google-plus-logo</title>
    <desc>Created with Sketch.</desc>
    <defs></defs>
    <g id="Page-1" stroke="none" stroke-width="1" fill="none" fill-rule="evenodd">
        <g id="safe-car" transform="translate(-1171.000000, -4804.000000)" fill-rule="nonzero" fill="#183963">
            <g id="google-plus-logo" transform="translate(1171.000000, 4804.000000)">
                <path d="M7.93541456,0 L4.9447403,0 C3.61206933,0 2.68956055,0.279594324 1.8592638,0.935946956 C1.20626797,1.47505835 0.81656856,2.25856691 0.81656856,3.03191292 C0.81656856,4.22341107 1.76588617,5.48964121 3.52503776,5.48964121 C3.69417948,5.48964121 3.88145277,5.4730341 4.04670916,5.458286 L4.02236104,5.51492368 C3.95164788,5.6770289 3.88469056,5.82996303 3.88469056,6.06865924 C3.88469056,6.53341045 4.11897644,6.82006899 4.34549166,7.09706071 L4.37398414,7.13213393 L4.32334523,7.13548014 C3.59691651,7.18307066 2.24481885,7.27180716 1.2571659,7.8526842 C0.0906578893,8.51634891 0,9.48179208 0,9.76175821 C0,10.8756739 1.0847864,12 3.50846032,12 C6.32662556,12 7.80124088,10.5121765 7.80124088,9.04257121 C7.80149991,7.95554913 7.13542344,7.41891641 6.42842142,6.8491934 L5.83202202,6.40526305 C5.64772748,6.25914527 5.41823351,6.0773346 5.41823351,5.74048293 C5.41823351,5.4093322 5.64772748,5.19071324 5.85028311,4.99787247 L5.87139344,4.97742342 C6.51545299,4.4919753 7.24537851,3.94158594 7.24537851,2.75107926 C7.24537851,1.55412802 6.46377799,0.935575155 6.08793629,0.638258319 L7.08038115,0.638258319 C7.09255521,0.638258319 7.10472927,0.635036044 7.11483115,0.628715428 L7.96973505,0.114390763 C7.99408317,0.099642658 8.00548016,0.0712618512 7.99745046,0.0447400492 C7.98980929,0.0182182472 7.96416606,0 7.93541456,0 Z M4.30871046,11.344267 C2.59087296,11.344267 1.43666852,10.576498 1.43666852,9.43370582 C1.43666852,8.68750129 1.9087371,8.14529155 2.83849851,7.82294012 C3.58305881,7.5831285 4.54416194,7.57123087 4.55374578,7.57123087 C4.71654145,7.57123087 4.79839257,7.57123087 4.92842188,7.58684651 C6.13041598,8.40542829 6.70829527,8.83523021 6.70829527,9.65381199 C6.70816576,10.6965898 5.78863574,11.344267 4.30871046,11.344267 Z M4.29252155,5.05104001 C2.85080208,5.05104001 2.25246001,3.23751885 2.25246001,2.26649867 C2.25246001,1.77274699 2.36979723,1.39375787 2.61120623,1.10759507 C2.87320753,0.793918989 3.32183457,0.591287464 3.7541432,0.591287464 C5.07787789,0.591287464 5.80987559,2.29388801 5.80987559,3.47063805 C5.80987559,3.65629067 5.80987559,4.22105633 5.40217411,4.61330634 C5.12799875,4.87517815 4.68209145,5.05104001 4.29252155,5.05104001 Z" id="Shape"></path>
                <path d="M11.9523946,4.19736343 L10.7938684,4.19736343 L10.7938684,3.04742033 C10.7938684,3.02124431 10.772446,3 10.746263,3 L10.2479292,3 C10.221651,3 10.2003237,3.02124431 10.2003237,3.04742033 L10.2003237,4.19736343 L9.04760545,4.19736343 C9.02132724,4.19736343 9,4.21860774 9,4.24478376 L9,4.74781866 C9,4.77389985 9.02132724,4.795239 9.04760545,4.795239 L10.2003237,4.795239 L10.2003237,5.95257967 C10.2003237,5.97866085 10.221651,6 10.2479292,6 L10.746263,6 C10.772446,6 10.7938684,5.97866085 10.7938684,5.95257967 L10.7938684,4.79504932 L11.9523946,4.79504932 C11.9786728,4.79504932 12,4.77389985 12,4.74762898 L12,4.24478376 C12,4.2185129 11.978768,4.19736343 11.9523946,4.19736343 Z" id="Shape"></path>
            </g>
        </g>
    </g>
</svg>