<svg id="logo_svg" data-name="logo svg" xmlns="http://www.w3.org/2000/svg" width="255" height="62" viewBox="0 0 255 62"><defs><style>.cls-1{fill:#fff;}.cls-2{fill:#03a8f0;}.cls-3{fill:#183963;}.cls-4{fill:#193a63;}</style></defs><title>elephant-160-I</title><path class="cls-1" d="M83.89,31.07a19.2,19.2,0,1,1-19.2-19.19A19.2,19.2,0,0,1,83.89,31.07Z"/><path class="cls-2" d="M82.26,29.15a17.37,17.37,0,0,1,.11,1.92,17.66,17.66,0,1,1-.55-4.39,14.36,14.36,0,0,0,1.62-.12A19.27,19.27,0,1,0,84,31.07c0-.72,0-1.43-.12-2.13A10.44,10.44,0,0,1,82.26,29.15Z"/><path class="cls-2" d="M135.77,42.37l-2.28,12H132l2.28-12Z"/><path class="cls-2" d="M136.27,54.39l1.14-6.11c.2-1,.32-1.81.41-2.52h1.34l-.23,1.7h0a3.81,3.81,0,0,1,3.21-1.9A2.11,2.11,0,0,1,144.35,48a7.91,7.91,0,0,1-.16,1.4l-1,5h-1.46l.94-5a6.32,6.32,0,0,0,.11-1.11c0-.85-.34-1.49-1.35-1.49s-2.56,1.26-2.95,3.4l-.79,4.19Z"/><path class="cls-2" d="M145.49,52.91a3.79,3.79,0,0,0,1.85.54A1.49,1.49,0,0,0,149,52c0-.68-.3-1.11-1.21-1.61a2.55,2.55,0,0,1-1.55-2.19,2.85,2.85,0,0,1,3.14-2.68,3.61,3.61,0,0,1,1.78.43l-.41,1.12a3.1,3.1,0,0,0-1.48-.39A1.4,1.4,0,0,0,147.7,48c0,.62.41,1,1.19,1.44a2.68,2.68,0,0,1,1.61,2.28c0,1.82-1.46,2.84-3.3,2.84a4,4,0,0,1-2.14-.59Z"/><path class="cls-2" d="M160.41,45.76l-1.18,6.12c-.18,1-.3,1.8-.37,2.51h-1.34l.23-1.62h0a3.85,3.85,0,0,1-3.05,1.82c-1.1,0-2.28-.53-2.28-2.5a7.78,7.78,0,0,1,.16-1.46l.94-4.87H155L154,50.58a6.91,6.91,0,0,0-.14,1.26c0,.89.35,1.5,1.37,1.5s2.46-1.27,2.82-3.16l.84-4.42Z"/><path class="cls-2" d="M161,54.39,162,48.83c.22-1.13.34-2.27.43-3.07h1.31c-.06.61-.13,1.19-.24,1.87h.06a3.14,3.14,0,0,1,2.64-2.07,2.72,2.72,0,0,1,.42,0l-.28,1.46a2.27,2.27,0,0,0-.41,0c-1.27,0-2.41,1.56-2.78,3.56l-.72,3.81Z"/><path class="cls-2" d="M171.94,54.39c0-.51.09-1.33.19-2.23h0c-.95,1.81-2.14,2.43-3.36,2.43a2.55,2.55,0,0,1-2.48-2.85,6,6,0,0,1,6-6.18,9.15,9.15,0,0,1,2.32.32l-.87,4.52a18.94,18.94,0,0,0-.36,4Zm.94-7.53a3.62,3.62,0,0,0-1-.12c-2.22,0-4.06,2.32-4.06,4.73,0,1,.34,1.91,1.46,1.91s2.71-1.61,3.12-3.91Z"/><path class="cls-2" d="M175.28,54.39l1.14-6.11c.2-1,.33-1.81.42-2.52h1.33l-.23,1.7h0a3.81,3.81,0,0,1,3.21-1.9A2.12,2.12,0,0,1,183.37,48a8,8,0,0,1-.17,1.4l-1,5h-1.46l.94-5a6.32,6.32,0,0,0,.11-1.11c0-.85-.34-1.49-1.36-1.49s-2.55,1.26-2.94,3.4l-.78,4.19Z"/><path class="cls-2" d="M190.52,54.06a5.71,5.71,0,0,1-2.5.53,3.1,3.1,0,0,1-3.32-3.33,5.49,5.49,0,0,1,5.28-5.7,3.9,3.9,0,0,1,1.8.4l-.42,1.15a3.43,3.43,0,0,0-1.47-.31c-2.25,0-3.66,2.21-3.66,4.26a2,2,0,0,0,2.15,2.32,4.48,4.48,0,0,0,2-.48Z"/><path class="cls-2" d="M198.24,53.91a6.14,6.14,0,0,1-2.86.68c-2.28,0-3.28-1.57-3.28-3.48,0-2.61,1.93-5.55,4.71-5.55a2.24,2.24,0,0,1,2.53,2.23c0,2.27-2.55,2.86-5.74,2.8a3.59,3.59,0,0,0,.18,1.65,1.93,1.93,0,0,0,1.92,1.15,4.88,4.88,0,0,0,2.32-.58Zm-.32-6.1c0-.7-.54-1.09-1.32-1.09-1.41,0-2.47,1.38-2.82,2.73,2.32,0,4.14-.28,4.14-1.62Z"/><path class="cls-3" d="M77.93,29.52a3.7,3.7,0,0,1-.49,2.38.77.77,0,0,1-1.29,0,.51.51,0,0,1,.12-.6c.16-.21.07-.24-.07-.32s-.07-.19.11-.15.11-.14,0-.27a.62.62,0,0,0-.92.24,2.07,2.07,0,0,0-.17,2c.93,1.62,2.89,1,3.69,0a6.08,6.08,0,0,0,1.37-3.77,9.14,9.14,0,0,1-2.6-.74A4.46,4.46,0,0,1,77.93,29.52Zm5.39-2a10.47,10.47,0,0,1-2.94-.18,10.35,10.35,0,0,1-3.7-1.55,9.94,9.94,0,0,0,2.79.7c.17,0,.34,0,.51,0-.76-2.47-1.8-3.13-2.13-4a5.23,5.23,0,0,0-.62-1.08,15.13,15.13,0,0,0-2.49-2.71c-.5-.44-2-.58-3.44-.31-2.06-1.9-4.55-2.92-6-1.89l0,0a2.06,2.06,0,0,0-.86,1,3.63,3.63,0,0,0-.29.76,18,18,0,0,1-3.15-.4S56.8,16.81,54,21.59a10.1,10.1,0,0,0-1.55,4.2,12.4,12.4,0,0,1-.29,1.56,4.18,4.18,0,0,1-3,3.18h0a.1.1,0,0,0-.1.1.09.09,0,0,0,.1.1,4,4,0,0,0,1.5-.33,3.08,3.08,0,0,0,1.22-.86,4.64,4.64,0,0,0,.63-.87,7.42,7.42,0,0,1-.59,4s-1.74,3.2-1.45,5.92a16.08,16.08,0,0,0,28.36,0H72.34a16.94,16.94,0,0,0-1.69-6,9.29,9.29,0,0,1-.74-3.27A7.52,7.52,0,0,1,65.55,25v0h0v0a.1.1,0,0,1,.1-.1.09.09,0,0,1,.08,0h0a9,9,0,0,0,4.68,3.73s3.08.84,2.24-1.94c0,0,.32.53,1.89.27a.85.85,0,0,0,.26.24,1.24,1.24,0,0,0,.47.17c.19.3.61.48.8,0,0-.07,0-.13.05-.18a11.7,11.7,0,0,0,2.26.72,11.38,11.38,0,0,0,4.83,0h.09c.17,0,.28-.12.27-.19S83.46,27.55,83.32,27.55ZM53.56,38.64a9,9,0,0,1,1.13-4.84,1.63,1.63,0,0,1,.45-.6,3.68,3.68,0,0,1,.32,1.3c.11,1.26-.25,2.55.26,4.14ZM64,31.6A22.51,22.51,0,0,1,63.81,34l0,0c-.27,1.53-.95,3.29-.49,4.69H59A6.59,6.59,0,0,1,58,36a5.72,5.72,0,0,1,.17-3.31,2.42,2.42,0,0,1,1.61-1.54A7,7,0,0,0,62,30.9c.82-.36,1.28-.62,1.7-.49S64,31.34,64,31.6Zm3.31,1.24a10.39,10.39,0,0,1,1.76,5.8H66.26C66.09,38.14,65.67,36.22,67.31,32.84Zm8.37-9.56a.69.69,0,1,1-.15-1.38.69.69,0,0,1,.76.62A.69.69,0,0,1,75.68,23.28Z"/><path class="cls-3" d="M197.49,23.41l.87-4.09h-4.22l-.87,4.11-1.74.12L190.8,27l1.64.13-1.49,7a7.1,7.1,0,0,0-.19,1.61,3.2,3.2,0,0,0,1.3,2.82,5.29,5.29,0,0,0,3,.74,10.48,10.48,0,0,0,4.33-.9l.2-.09-.88-3.35-.28.11a6.85,6.85,0,0,1-2.47.58c-.6,0-1-.14-1-.66a1.1,1.1,0,0,1,0-.27l1.63-7.54H201l.05-.21.79-3.5Zm-89.82,12a2.43,2.43,0,0,1-.86.19c-.42,0-.58-.14-.6-.54a1.47,1.47,0,0,1,0-.32l-.26-.07.26.06,3.87-18.31h-4.23L102,34.55a6.78,6.78,0,0,0-.19,1.55,3,3,0,0,0,.88,2.34,3.43,3.43,0,0,0,2.38.77,10.37,10.37,0,0,0,3.23-.59l.22-.07L108,35.28Zm13.55-.6a10.1,10.1,0,0,1-3.7.82c-2,0-3.28-.93-3.38-2.88H124l.07-.16a7.94,7.94,0,0,0,.68-3.16,6.3,6.3,0,0,0-1.79-4.56,6.39,6.39,0,0,0-4.58-1.78c-5.07,0-8.49,4.22-8.5,9.07a6.87,6.87,0,0,0,2.08,5.24,7.71,7.71,0,0,0,5.34,1.85,11.52,11.52,0,0,0,5.06-1.2l.2-.1-1.06-3.24Zm-3-8.19a2.43,2.43,0,0,1,2.33,2.49,1.62,1.62,0,0,1,0,.3h-5.8A3.92,3.92,0,0,1,118.18,26.61ZM138.76,25a8.27,8.27,0,0,0-5.51-1.89,16.32,16.32,0,0,0-5.39,1l-.17.06v.19a9.82,9.82,0,0,1-.24,2.07l-4.1,19.2h4.22l1.48-6.91a9.31,9.31,0,0,0,3,.51,8.92,8.92,0,0,0,9-9A6.87,6.87,0,0,0,138.76,25Zm-7,10.62a4.84,4.84,0,0,1-1.91-.4l1.58-7.5a4.39,4.39,0,0,0,.09-.72,5.57,5.57,0,0,1,1.56-.24c2.27,0,3.48,1.37,3.5,3.62A5.07,5.07,0,0,1,131.72,35.59ZM156,24.15a5.42,5.42,0,0,0-3.53-1.06,10.88,10.88,0,0,0-3.7.69l1.61-7.37h-4.23l-4.87,22.5h4.23L148,27.63a7.48,7.48,0,0,1,3.3-.9c1.25,0,1.73.49,1.77,1.74a5.14,5.14,0,0,1-.09.87l-2,9.57h4.22L157.22,29h0a8.1,8.1,0,0,0,.19-1.49A4.21,4.21,0,0,0,156,24.15ZM167.86,39a20,20,0,0,0,3-.66l.18-.06v-.19a15,15,0,0,1,.18-2l1.55-7.19a6.12,6.12,0,0,0,.16-1.37A3.82,3.82,0,0,0,171.1,24a7.41,7.41,0,0,0-3.83-.94,18.32,18.32,0,0,0-6.08,1.25l-.25.09,1.17,3.29.25-.1a12.79,12.79,0,0,1,4.43-.91,4,4,0,0,1,1.31.19c.41.17.63.37.64.77s-.49.86-1.49,1.16c-1.47.45-3.75.67-5.68,1.4S158,32.28,158,34.84a3.74,3.74,0,0,0,2.11,3.49,10.29,10.29,0,0,0,4.56.88,22.07,22.07,0,0,0,3.2-.25m-.53-4.3a5.53,5.53,0,0,0-.08.78,10.14,10.14,0,0,1-2.46.27,4.3,4.3,0,0,1-1.6-.25,1.06,1.06,0,0,1-.74-1c0-.9,1-1.36,2.32-1.7a21.58,21.58,0,0,0,3.16-.83ZM187.4,24.09a6.77,6.77,0,0,0-3.91-1A25,25,0,0,0,176,24.51l-.18,0v.19a18.61,18.61,0,0,1-.17,2l-2.59,12.12h4.23L179.68,28a5.17,5.17,0,0,0,.06-.76,9.49,9.49,0,0,1,2.88-.47c1.31,0,2.13.35,2.15,1.71a5,5,0,0,1-.14,1.16l-1.95,9.31h4.22L188.77,30a11,11,0,0,0,.28-2.21A4.22,4.22,0,0,0,187.4,24.09ZM99.15,29.92l.8-3.75H93.14l1-4.43h8.15l0-.21.82-3.51H90.63L86.14,38.91H98.73l.87-3.75H91.17l1.16-5.24Z"/><path class="cls-4" d="M203.42,34.93a2,2,0,0,1,1,.26,1.86,1.86,0,0,1,.74.73,2,2,0,0,1,.26,1,1.92,1.92,0,0,1-.26,1,1.86,1.86,0,0,1-.73.74,2,2,0,0,1-2,0,1.86,1.86,0,0,1-.73-.74,1.93,1.93,0,0,1-.27-1,2,2,0,0,1,.27-1,1.86,1.86,0,0,1,.74-.73A2,2,0,0,1,203.42,34.93Zm0,.33a1.69,1.69,0,0,0-.81.21,1.54,1.54,0,0,0-.62.62,1.65,1.65,0,0,0-.23.83,1.74,1.74,0,0,0,.22.82,1.52,1.52,0,0,0,.62.61,1.64,1.64,0,0,0,1.64,0,1.52,1.52,0,0,0,.62-.61,1.74,1.74,0,0,0,.22-.82,1.65,1.65,0,0,0-.23-.83,1.48,1.48,0,0,0-.62-.62A1.69,1.69,0,0,0,203.42,35.26ZM202.55,38V35.88h.73a1.81,1.81,0,0,1,.55.06.54.54,0,0,1,.27.2.63.63,0,0,1,.1.32.56.56,0,0,1-.17.4.67.67,0,0,1-.44.2.78.78,0,0,1,.18.11,2.87,2.87,0,0,1,.31.43l.26.41h-.42l-.19-.33a1.76,1.76,0,0,0-.36-.5.41.41,0,0,0-.27-.07h-.21V38Zm.34-1.2h.42a.67.67,0,0,0,.41-.09.28.28,0,0,0,.11-.24.37.37,0,0,0-.05-.17.58.58,0,0,0-.15-.11,1.24,1.24,0,0,0-.34,0h-.4Z"/></svg>